# xmcd
#
# Track frame offsets: 
#        150
#        15830
#        31179
#        53015
#        68347
#        84409
#        101818
#        116373
#        130829
#        144259
#        161740
#        174319
#        190210
#
# Disc length: 2764 seconds
#
# Revision: 1
# Processed by: cddbd v1.5.2PL0 Copyright (c) Steve Scherf et al.
# Submitted via: ExactAudioCopy v1.0b3
#
DISCID=950aca0d
DTITLE=黄江琴 - DTS ES 正品 回到过去 邓丽君金曲二胡版 DTS-CD
DYEAR=2009
DGENRE=DTS ES
TTITLE0=甜蜜蜜
TTITLE1=南海姑娘
TTITLE2=在水一方
TTITLE3=小城故事
TTITLE4=一帘幽梦
TTITLE5=月亮代表我的心
TTITLE6=奈何
TTITLE7=海韵
TTITLE8=又见炊烟
TTITLE9=云河
TTITLE10=独上西楼
TTITLE11=但愿人长久
TTITLE12=千言万语
EXTD=
EXTT0=
EXTT1=
EXTT2=
EXTT3=
EXTT4=
EXTT5=
EXTT6=
EXTT7=
EXTT8=
EXTT9=
EXTT10=
EXTT11=
EXTT12=
PLAYORDER=
